<?xml version="1.0" encoding="utf-8"?>
<!-- Generator: Adobe Illustrator 27.1.1, SVG Export Plug-In . SVG Version: 6.00 Build 0)  -->
<svg version="1.1" id="Layer_1" xmlns="http://www.w3.org/2000/svg" xmlns:xlink="http://www.w3.org/1999/xlink" x="0px" y="0px"
	 viewBox="0 0 1024 1024" style="enable-background:new 0 0 1024 1024;" xml:space="preserve">
<style type="text/css">
	.st0{opacity:0.999;fill-rule:evenodd;clip-rule:evenodd;fill:#FEFEFE;enable-background:new    ;}
	.st1{fill-rule:evenodd;clip-rule:evenodd;fill:#07CEFC;}
	.st2{fill-rule:evenodd;clip-rule:evenodd;fill:#064BB4;}
	.st3{opacity:0.995;fill-rule:evenodd;clip-rule:evenodd;fill:#0B2A92;enable-background:new    ;}
	.st4{opacity:0.997;fill-rule:evenodd;clip-rule:evenodd;fill:#CB1827;enable-background:new    ;}
	.st5{fill-rule:evenodd;clip-rule:evenodd;fill:#7D0F20;}
	.st6{opacity:0.999;fill-rule:evenodd;clip-rule:evenodd;fill:#D41D2B;enable-background:new    ;}
	.st7{opacity:0.999;fill-rule:evenodd;clip-rule:evenodd;fill:#F03337;enable-background:new    ;}
	.st8{opacity:0.978;fill-rule:evenodd;clip-rule:evenodd;fill:#FEFFFE;enable-background:new    ;}
	.st9{opacity:0.979;fill-rule:evenodd;clip-rule:evenodd;fill:#FEFFFE;enable-background:new    ;}
	.st10{opacity:0.975;fill-rule:evenodd;clip-rule:evenodd;fill:#FEFFFE;enable-background:new    ;}
</style>
<g>
	<path class="st0" d="M966.5,294.5c-68.7,0.2-137.3,0-206-0.5c-29.9-22.9-62.6-41.2-98-55c-30.5-10.4-91.9-16.6-94-16.5
		s-36-0.2-39,0s-13.2,0.9-14,1s-8.7,1-9,1s-7.9,1-8,1s-6.9,1-7,1s-5.4,1.1-6,1s-95.1,31.5-129.5,71c-15.3,18-30.2,36.4-44.5,55
		c2.7-15.8,6.2-31.5,10.5-47c0.4-3.5,0.9-7,1.5-10.5c-0.5-3.1-1.5-3.2-3-0.5c-27,19.8-50.5,43.1-70.5,70c-4.7,6.7-8.9,13.7-12.5,21
		c-18,29.8-30.9,61.8-38.5,96c-3.8,21.2-4.5,42.6-2,64c2.1,14.9,4.6,29.7,7.5,44.5c-0.3,1-1,1.5-2,1.5c-15.8-28.3-30.1-57.5-43-87.5
		c-0.3-1-1-1.5-2-1.5c0.9-42.3,10.1-83,27.5-122c19.1-42.8,45.6-80.3,79.5-112.5c17.6-15.4,35.6-30.3,54-44.5
		c29.1-17,59.8-30.5,92-40.5c56.3-13.4,113-15,170-5c49.9,9.4,94.9,29.4,135,60c15.2,11.8,30.2,23.8,45,36c71.3,0.3,142.7,0.7,214,1
		c0.5,0.4,0.8,0.9,1,1.5C972.7,283.4,969.7,289,966.5,294.5z"/>
</g>
<g>
	<path class="st1" d="M568.5,222.5c11.2,0.8,63.5,6.1,94,16.5c35.4,13.8,68.1,32.1,98,55c68.7,0.5,137.3,0.7,206,0.5
		c-33.2,67.4-66.7,134.8-100.5,202c-5.5,34.8-14,68.8-25.5,102c-6.2-11-11.8-22.3-17-34c-2.2-43.5-9-86.5-20.5-129
		c-15.6-55.5-47.7-98.4-96.5-128.5c-73.3-43-151.3-55-234-36c-24.1,7.1-47.1,16.6-69,28.5c-15.2,6.9-29.9,14.9-44,24
		c-0.8,0.5-1.1,1.1-1,2c-15.9,9.8-31.5,19.8-47,30c0-0.7,0-1.3,0-2c14.3-18.6,29.2-37,44.5-55c34.4-39.5,77.6-63.1,129.5-71
		c0.7,0,5.4-0.9,6-1s5.8-0.8,7-1s7.6-1,8-1s7.4-0.9,9-1s9.3-0.7,14-1C535.7,222.3,557.2,221.7,568.5,222.5z"/>
</g>
<g>
	<path class="st2" d="M823.5,564.5c-12.1-29.5-26.7-57.5-44-84c-0.3,0.7-0.7,1.3-1,2c8.3,24.4,13.3,49.4,15,75
		c-0.4,25.2-5.9,49.2-16.5,72c-15.6,35.6-37.4,66.8-65.5,93.5c-17.2,14.3-35.8,26.5-56,36.5c-0.3-0.7-0.7-1.3-1-2
		c2.4-10.6,5.4-21,9-31c-0.1,1.9,0.4,2.2,1.5,1c41.9-49.8,71.3-106.5,88-170c22.3-116.9-20.5-199.8-128.5-248.5
		c-44.7-19.2-91.4-28.2-140-27c-27.6,3-54.6,8.9-81,17.5c21.9-11.9,44.9-21.4,69-28.5c82.7-19,160.7-7,234,36
		c48.8,30.1,80.9,73,96.5,128.5C814.5,478,821.3,521,823.5,564.5z"/>
</g>
<g>
	<path class="st3" d="M663.5,726.5c1.7-5,3.6-10,5.5-15c8.1-16.6,16-33.2,23.5-50c1.4-2.3,2.7-4.7,4-7c1.9-2.6,3.9-5.1,6-7.5
		c-0.6-0.4-0.9-0.9-1-1.5c33.7-47.6,48.9-100.6,45.5-159c-6.5-61.6-35.4-109.4-86.5-143.5c-40.9-25.4-85.3-41.8-133-49
		c-38.6-4-76.3,0.4-113,13c-18.3,6.1-36.5,12.6-54.5,19.5c-0.8-0.1-1.3-0.4-1.5-1c-0.1-0.9,0.2-1.5,1-2c14.1-9.1,28.8-17.1,44-24
		c26.4-8.6,53.4-14.5,81-17.5c48.6-1.2,95.3,7.8,140,27c108,48.7,150.8,131.6,128.5,248.5c-16.7,63.5-46.1,120.2-88,170
		C663.9,728.7,663.4,728.4,663.5,726.5z"/>
</g>
<g>
	<path class="st4" d="M311.5,353.5c0,0.7,0,1.3,0,2c-21.1,47.1-35.8,96.1-44,147c-8.8-59.1,1-115.1,29.5-168
		c7.9-13.1,15.7-26.1,23.5-39c1.5-2.7,2.5-2.6,3,0.5c-0.6,3.5-1.1,7-1.5,10.5C317.7,322,314.2,337.7,311.5,353.5z"/>
</g>
<g>
	<path class="st5" d="M320.5,295.5c-7.8,12.9-15.6,25.9-23.5,39c-28.5,52.9-38.3,108.9-29.5,168c0.4,21.4,1.9,42.7,4.5,64
		c1.1,6.1,2.4,12.1,4,18c4.4,13.2,9.2,26.2,14.5,39c-54.9-53.7-76-118.7-63.5-195c3.7-14.3,7.2-28.3,10.5-42
		c3.6-7.3,7.8-14.3,12.5-21C270,338.6,293.5,315.3,320.5,295.5z"/>
</g>
<g>
	<path class="st6" d="M237.5,386.5c-3.3,13.7-6.8,27.7-10.5,42c-12.5,76.3,8.6,141.3,63.5,195c13.8,15,28.5,29.2,44,42.5
		c38.1,31.6,81.8,51.6,131,60c38.9,8,77.5,7.3,116-2c22-6.8,42.4-16.8,61-30c20.1-15.6,39.8-31.8,59-48.5c0.1,0.6,0.4,1.1,1,1.5
		c-2.1,2.4-4.1,4.9-6,7.5c-11.1,9.9-22.1,20.1-33,30.5c-18.8,16.5-38.5,31.8-59,46c-50.3,31.8-104.9,43.5-164,35
		c-61.7-8-116.1-32-163-72c-29.9-30.4-54.9-64.2-75-101.5c1,0,1.7-0.5,2-1.5c-2.9-14.8-5.4-29.6-7.5-44.5c-2.5-21.4-1.8-42.8,2-64
		C206.6,448.3,219.5,416.3,237.5,386.5z"/>
</g>
<g>
	<path class="st0" d="M823.5,564.5c5.2,11.7,10.8,23,17,34c1,3.1,2.4,6.1,4,9c-14.8,30.9-30.6,61.3-47.5,91
		c-27.9,47.3-65.8,84.4-113.5,111.5c-65.4,31.5-134.4,45.5-207,42c-59.3-2.4-112.9-20.8-161-55c-28.1-21.1-54.8-44.1-80-69
		c-57.7-0.5-115.3-0.7-173-0.5c3.5-8.2,7.5-16.2,12-24c53.6-1.2,107.3-1.3,161-0.5c32.5,25.1,67.5,46.4,105,64
		c69.8,27.2,140.1,28.5,211,4c29.6-11.8,56.2-28.1,80-49c20.9-19.8,41.3-39.9,61-60.5c-7.5,16.8-15.4,33.4-23.5,50
		c-1.9,5-3.8,10-5.5,15c-3.6,10-6.6,20.4-9,31c0.3,0.7,0.7,1.3,1,2c20.2-10,38.8-22.2,56-36.5c28.1-26.7,49.9-57.9,65.5-93.5
		c10.6-22.8,16.1-46.8,16.5-72c-1.7-25.6-6.7-50.6-15-75c-0.4-1.2-1.9-5.5-2.1-6.8C794,502,811.4,535,823.5,564.5z"/>
</g>
<g>
	<path class="st7" d="M157.5,503.5c1,0,1.7,0.5,2,1.5c12.9,30,27.2,59.2,43,87.5c20.1,37.3,45.1,71.1,75,101.5
		c46.9,40,101.3,64,163,72c59.1,8.5,113.7-3.2,164-35c20.5-14.2,40.2-29.5,59-46c10.9-10.4,21.9-20.6,33-30.5c-1.3,2.3-2.6,4.7-4,7
		c-19.7,20.6-40.1,40.7-61,60.5c-23.8,20.9-50.4,37.2-80,49c-70.9,24.5-141.2,23.2-211-4c-37.5-17.6-72.5-38.9-105-64
		c-53.7-0.8-107.4-0.7-161,0.5c20.9-38.8,42.1-77.4,63.5-116C142,558.9,148.5,530.9,157.5,503.5z"/>
</g>
<g>
	<path class="st8" d="M271.3,427.1c48.7-0.3,97.3,0,146,1c-4.7,13.2-9.1,26.6-13,40c-34.7-0.2-69.3,0-104,0.5
		c-13.1,37.8-25.9,75.5-38.8,113.4c-14.6,0.3-28.5,0.2-43.2,0.1C235.7,530.3,253.4,478.7,271.3,427.1z"/>
</g>
<g>
	<path class="st9" d="M439.3,427.1c34.7-0.2,69.3,0,104,0.5c34.7,5.9,50.2,26.4,46.5,61.5c-8,37.3-28.8,64.8-62.5,82.5
		c-9.6,4.5-19.6,7.9-30,10c-19.6,1.1-39.3,1.6-59,1.5c-17.3-0.3-34.7-0.7-52-1C404.1,530.5,421.8,478.8,439.3,427.1z M468.3,468.1
		c19.7-0.2,39.3,0,59,0.5c11.6,3.3,17.6,10.9,18,23c-3.3,26.6-18,43.3-44,50c-19.3,0.7-38.7,0.7-58,0
		C451.7,517.1,460,492.6,468.3,468.1z"/>
</g>
<g>
	<path class="st8" d="M664.3,427.1c52-0.2,104,0,156,0.5c-13.2,13-26.2,26.2-39,39.5c-40.7,0.8-81.3,1.3-122,1.5
		c-13.1,0.1-14.1,18.9-2.4,19c2,0-1.4,0,0.4,0c26.7,0.3,53.3,0.7,80,1c16.3,4,25,14.3,26,31c-5,34-24.4,55-58,63
		c-52,0.7-104,0.7-156,0c13.2-13,26.2-26.2,39-39.5c40.3-0.8,80.7-1.3,121-1.5c14-0.1,12.7-18.8,0.8-18.8c-28.4-0.1-50.5-1-78.8-2.2
		c-20.3-6.1-28.1-19.6-23.5-40.5C616.5,451.5,635.3,433.9,664.3,427.1z"/>
</g>
<g>
	<path class="st10" d="M306.3,488.1c29.5,0.2,59,0.7,89,1c-4.2,11.3-8.2,22.6-12,34c-29.8,0.5-59.4,0.8-89,1
		C298.2,512.2,302.2,500,306.3,488.1z"/>
</g>
</svg>
